<svg data-v-423bf9ae="" xmlns="http://www.w3.org/2000/svg" viewBox="0 0 729.6139432344676 193" class="fontAboveSlogan"><!----><!----><!----><g data-v-423bf9ae="" id="b612e780-811e-4420-a5df-bd5b25140eca" fill="black" transform="matrix(8.48656273595261,0,0,8.48656273595261,183.23133719663593,-12.529305850940162)"><path d="M5.32 9.56L3.30 2.80L1.65 2.80L4.80 12.88L11.59 2.80L9.77 2.80ZM17.42 12.60L17.67 11.20L13.59 11.20L16.84 8.48C17.14 8.24 17.38 8.03 17.56 7.84C17.75 7.65 17.94 7.42 18.14 7.13C18.34 6.85 18.49 6.53 18.59 6.18C18.68 5.83 18.73 5.45 18.73 5.03C18.73 4.34 18.50 3.75 18.05 3.25C17.59 2.76 16.91 2.51 16.02 2.51C14.94 2.51 14.02 2.85 13.26 3.54C12.49 4.22 12.02 5.10 11.84 6.16L13.31 6.16C13.43 5.51 13.73 4.97 14.22 4.54C14.72 4.12 15.26 3.91 15.83 3.91C16.30 3.91 16.65 4.02 16.87 4.23C17.09 4.45 17.21 4.74 17.21 5.10C17.21 5.63 17.07 6.10 16.80 6.52C16.53 6.94 16.10 7.41 15.51 7.91L10.08 12.60ZM23.45 3.36L24.37 2.20C24.13 1.76 23.65 1.54 22.93 1.54C22.19 1.54 21.63 1.74 21.24 2.13C20.85 2.53 20.58 3.13 20.44 3.92L20.03 6.16L19.25 6.16L19.01 7.49L19.80 7.49L18.89 12.60L20.36 12.60L21.27 7.49L22.86 7.49L23.10 6.16L21.50 6.16L21.88 4.06C21.95 3.69 22.06 3.41 22.23 3.22C22.40 3.03 22.60 2.94 22.82 2.94C23.12 2.94 23.33 3.08 23.45 3.36ZM25.06 1.68L23.13 12.60L24.63 12.60L26.56 1.68ZM26.52 6.16L28.04 12.18L25.93 15.68L27.64 15.68L33.52 6.16L31.81 6.16L29.16 10.75L28.14 6.16ZM38.19 2.52L31.40 12.60L33.15 12.60L34.90 9.94L38.82 9.94L39.59 12.60L41.34 12.60ZM37.63 5.82L38.42 8.54L35.84 8.54Z"></path></g><!----><!----><g data-v-423bf9ae="" id="9fc4363d-5f78-4024-9b72-e1035e6e1349" fill="black" transform="matrix(5.7915059834320255,0,0,5.7915059834320255,-8.455604746031042,116.78378757566671)"><path d="M1.46 13.02L1.46 3.78L4.72 3.78L4.72 3.78Q6.23 3.78 6.98 4.41L6.98 4.41L6.98 4.41Q7.73 5.04 7.73 6.23L7.73 6.23L7.73 6.23Q7.73 7.04 7.29 7.60L7.29 7.60L7.29 7.60Q6.85 8.16 6.03 8.33L6.03 8.33L6.03 8.34L6.03 8.34Q6.93 8.48 7.46 9.07L7.46 9.07L7.46 9.07Q7.98 9.66 7.98 10.53L7.98 10.53L7.98 10.53Q7.98 11.72 7.13 12.37L7.13 12.37L7.13 12.37Q6.29 13.02 4.72 13.02L4.72 13.02L1.46 13.02ZM2.16 8.04L4.73 8.04L4.73 8.04Q6.99 8.04 6.99 6.23L6.99 6.23L6.99 6.23Q6.99 4.42 4.73 4.42L4.73 4.42L2.16 4.42L2.16 8.04ZM2.16 12.38L4.86 12.38L4.86 12.38Q6.03 12.38 6.64 11.90L6.64 11.90L6.64 11.90Q7.24 11.42 7.24 10.53L7.24 10.53L7.24 10.53Q7.24 9.62 6.64 9.15L6.64 9.15L6.64 9.15Q6.03 8.68 4.86 8.68L4.86 8.68L2.16 8.68L2.16 12.38ZM20.03 5.88L20.03 5.88Q20.59 5.88 20.92 6.12L20.92 6.12L20.73 6.78L20.73 6.78Q20.41 6.52 19.84 6.52L19.84 6.52L19.84 6.52Q19.31 6.52 18.84 6.85L18.84 6.85L18.84 6.85Q18.37 7.18 18.08 7.78L18.08 7.78L18.08 7.78Q17.79 8.37 17.79 9.10L17.79 9.10L17.79 13.02L17.09 13.02L17.09 6.02L17.68 6.02L17.77 7.45L17.77 7.45Q18.06 6.71 18.64 6.29L18.64 6.29L18.64 6.29Q19.22 5.88 20.03 5.88L20.03 5.88ZM34.87 9.35L34.87 9.35Q34.87 9.59 34.85 9.81L34.85 9.81L29.29 9.81L29.29 9.81Q29.36 11.10 30.05 11.82L30.05 11.82L30.05 11.82Q30.74 12.54 31.91 12.54L31.91 12.54L31.91 12.54Q32.73 12.54 33.33 12.21L33.33 12.21L33.33 12.21Q33.92 11.87 34.19 11.26L34.19 11.26L34.78 11.56L34.78 11.56Q34.38 12.33 33.66 12.75L33.66 12.75L33.66 12.75Q32.93 13.16 31.91 13.16L31.91 13.16L31.91 13.16Q30.35 13.16 29.48 12.19L29.48 12.19L29.48 12.19Q28.60 11.23 28.60 9.52L28.60 9.52L28.60 9.52Q28.60 7.81 29.45 6.85L29.45 6.85L29.45 6.85Q30.30 5.88 31.82 5.88L31.82 5.88L31.82 5.88Q33.25 5.88 34.06 6.83L34.06 6.83L34.06 6.83Q34.87 7.78 34.87 9.35L34.87 9.35ZM31.82 6.50L31.82 6.50Q30.69 6.50 30.03 7.20L30.03 7.20L30.03 7.20Q29.37 7.91 29.29 9.18L29.29 9.18L34.22 9.18L34.22 9.18Q34.15 7.92 33.52 7.21L33.52 7.21L33.52 7.21Q32.90 6.50 31.82 6.50L31.82 6.50ZM49.50 12.56L49.50 12.56Q49.85 12.56 50.05 12.46L50.05 12.46L50.01 13.02L50.01 13.02Q49.76 13.16 49.32 13.16L49.32 13.16L49.32 13.16Q48.83 13.16 48.52 12.89L48.52 12.89L48.52 12.89Q48.22 12.63 48.17 11.97L48.17 11.97L48.17 11.97Q47.85 12.53 47.14 12.84L47.14 12.84L47.14 12.84Q46.42 13.16 45.64 13.16L45.64 13.16L45.64 13.16Q44.60 13.16 43.98 12.70L43.98 12.70L43.98 12.70Q43.36 12.24 43.36 11.38L43.36 11.38L43.36 11.38Q43.36 9.76 46.02 9.28L46.02 9.28L48.16 8.90L48.16 8.29L48.16 8.29Q48.16 7.45 47.66 6.97L47.66 6.97L47.66 6.97Q47.17 6.50 46.26 6.50L46.26 6.50L46.26 6.50Q44.59 6.50 44.02 7.98L44.02 7.98L43.48 7.59L43.48 7.59Q43.79 6.76 44.51 6.32L44.51 6.32L44.51 6.32Q45.22 5.88 46.26 5.88L46.26 5.88L46.26 5.88Q47.47 5.88 48.17 6.47L48.17 6.47L48.17 6.47Q48.86 7.07 48.86 8.20L48.86 8.20L48.86 11.82L48.86 11.82Q48.86 12.56 49.50 12.56L49.50 12.56ZM45.71 12.54L45.71 12.54Q46.30 12.54 46.86 12.34L46.86 12.34L46.86 12.34Q47.42 12.14 47.79 11.74L47.79 11.74L47.79 11.74Q48.16 11.34 48.16 10.78L48.16 10.78L48.16 9.48L46.24 9.83L46.24 9.83Q45.11 10.04 44.59 10.42L44.59 10.42L44.59 10.42Q44.07 10.79 44.07 11.38L44.07 11.38L44.07 11.38Q44.07 11.94 44.51 12.24L44.51 12.24L44.51 12.24Q44.94 12.54 45.71 12.54L45.71 12.54ZM63.50 13.02L60.83 9.31L59.18 10.91L59.18 13.02L58.48 13.02L58.48 2.80L59.18 2.80L59.18 10.02L63.34 6.02L64.25 6.02L61.35 8.82L64.36 13.02L63.50 13.02ZM87.75 8.50L91.55 8.50L91.55 13.02L90.99 13.02L90.96 11.41L90.96 11.41Q90.58 12.25 89.78 12.71L89.78 12.71L89.78 12.71Q88.97 13.16 87.78 13.16L87.78 13.16L87.78 13.16Q86.52 13.16 85.58 12.58L85.58 12.58L85.58 12.58Q84.63 12.00 84.12 10.92L84.12 10.92L84.12 10.92Q83.61 9.84 83.61 8.40L83.61 8.40L83.61 8.40Q83.61 6.96 84.13 5.88L84.13 5.88L84.13 5.88Q84.66 4.80 85.61 4.22L85.61 4.22L85.61 4.22Q86.56 3.64 87.82 3.64L87.82 3.64L87.82 3.64Q89.24 3.64 90.13 4.20L90.13 4.20L90.13 4.20Q91.03 4.76 91.48 5.91L91.48 5.91L90.83 6.24L90.83 6.24Q90.51 5.28 89.75 4.78L89.75 4.78L89.75 4.78Q88.98 4.28 87.82 4.28L87.82 4.28L87.82 4.28Q86.79 4.28 86.00 4.78L86.00 4.78L86.00 4.78Q85.22 5.28 84.78 6.21L84.78 6.21L84.78 6.21Q84.35 7.14 84.35 8.40L84.35 8.40L84.35 8.40Q84.35 10.32 85.27 11.42L85.27 11.42L85.27 11.42Q86.18 12.52 87.81 12.52L87.81 12.52L87.81 12.52Q88.82 12.52 89.52 12.12L89.52 12.12L89.52 12.12Q90.22 11.72 90.55 11.07L90.55 11.07L90.55 11.07Q90.89 10.42 90.89 9.67L90.89 9.67L90.89 9.16L87.75 9.16L87.75 8.50ZM107.32 4.42L101.72 4.42L101.72 7.99L106.16 7.99L106.16 8.65L101.72 8.65L101.72 13.02L101.02 13.02L101.02 3.78L107.32 3.78L107.32 4.42ZM120.78 6.54L118.92 13.02L118.05 13.02L115.16 3.78L115.92 3.78L118.48 12.45L120.90 3.78L121.72 3.78L124.14 12.46L126.73 3.78L127.44 3.78L124.56 13.02L123.69 13.02L121.83 6.54L121.31 4.54L121.30 4.54L120.78 6.54Z"></path></g></svg>